<svg id="图层_1" data-name="图层 1" xmlns="http://www.w3.org/2000/svg" viewBox="0 0 64.0096 61.1489"><defs><style>.cls-1{fill:#fff;}</style></defs><path class="cls-1" d="M31.0133,1.4417s27.7,13.2217,27.7,31.43c0,17.1089-14.6139,19.8713-19.8713,19.8713S32,52.0149,32,52.0149a17.7546,17.7546,0,0,1-6.5248-7.8119,14.2467,14.2467,0,0,1-1.47-6.1337,7.88,7.88,0,0,0-.6981,3.4456,13.5488,13.5488,0,0,0,2.7185,6.9841,30.1574,30.1574,0,0,0,3.3261,3.4861,17.6959,17.6959,0,0,1-5.0569.6684c-3.03,0-20.9184-1.0693-20.9184-19.604S31.0133,1.4417,31.0133,1.4417Z" transform="translate(0.0021 -1.4417)"/><path class="cls-1" d="M30.2431,53.698S26.891,62.1339,4.5024,62.1339c-3.716,0-4.4183-.4084-4.4183-.4084s-1.0391-3.0662,4.099-6.8911a15.4182,15.4182,0,0,1,7.8936-2.8515A22.3073,22.3073,0,0,0,22.391,54.4482,33.3849,33.3849,0,0,0,30.2431,53.698Z" transform="translate(0.0021 -1.4417)"/><path class="cls-1" d="M34.9653,54.5248S36.3168,62.04,58.401,62.5869A44.7717,44.7717,0,0,0,64,62.1339s.4333-3.5077-5.2871-7.1636a25.8219,25.8219,0,0,0-9.1782-3.2079s-.6665,1.08-4.5149,2.1386A29.4139,29.4139,0,0,1,34.9653,54.5248Z" transform="translate(0.0021 -1.4417)"/></svg>