<?xml version="1.0" encoding="utf-8"?>
<!-- Generator: Adobe Illustrator 26.0.0, SVG Export Plug-In . SVG Version: 6.00 Build 0)  -->
<svg version="1.1" id="图层_1" xmlns="http://www.w3.org/2000/svg" xmlns:xlink="http://www.w3.org/1999/xlink" x="0px" y="0px"
	 viewBox="0 0 64 61.1" style="enable-background:new 0 0 64 61.1;" xml:space="preserve">
<style type="text/css">
	.st0{fill:#FFFFFF;}
</style>
<path class="st0" d="M30.2,52.3c0,0-3.4,8.4-25.7,8.4c-3.7,0-4.4-0.4-4.4-0.4s-1-3.1,4.1-6.9c2.3-1.7,5-2.6,7.9-2.9
	c3.2,1.6,6.7,2.5,10.3,2.5C25,53.1,27.7,52.8,30.2,52.3z"/>
<path class="st0" d="M35,53.1c0,0,1.4,7.5,23.4,8.1c1.9,0,3.7-0.2,5.6-0.5c0,0,0.4-3.5-5.3-7.2c-2.8-1.6-5.9-2.7-9.2-3.2
	c0,0-0.7,1.1-4.5,2.1C41.7,53.2,38.3,53.5,35,53.1z"/>
<g>
	<path class="st0" d="M41,36.4c0,0.7,0.2,1.2,0.5,1.6s0.8,0.5,1.4,0.5c1,0,1.8-0.3,2.4-1s1-1.6,1-2.8v-1.9c-2.1,0.3-3.5,0.7-4.2,1.3
		S41,35.5,41,36.4z"/>
	<path class="st0" d="M31,0C31,0,3.4,13.1,3.4,31.6c0,18.5,17.9,19.6,20.9,19.6c1.7,0,3.4-0.2,5.1-0.7c-1.2-1.1-2.3-2.2-3.3-3.5
		c-1.5-2-2.5-4.4-2.7-7c0-1.2,0.2-2.4,0.7-3.4c0,2.1,0.5,4.2,1.5,6.1c1.4,3.2,3.6,5.9,6.5,7.8c0,0,1.6,0.7,6.8,0.7
		s19.9-2.8,19.9-19.9C58.7,13.2,31,0,31,0z M34.5,19.9c-1.1,0.1-1.9,0.4-2.4,1c-0.5,0.5-0.7,1.3-0.7,2.4v16.8h-1.7L16.5,23.1v11.7
		c0,1.3,0.3,2.3,0.9,2.9s1.4,0.9,2.3,0.9h0.4v1.4h-8.7v-1.4H12c0.9,0,1.6-0.3,2.1-1c0.6-0.7,0.9-1.5,0.9-2.6V21.2
		c-0.6-0.9-1.5-1.3-2.5-1.3h-1v-1.4h6.7l11.6,14.7v-10c0-1-0.3-1.8-0.8-2.4c-0.6-0.6-1.4-0.9-2.4-1v-1.4h7.8V19.9z M51.4,40.3
		c-0.5,0.2-1,0.2-1.5,0.2c-0.8,0-1.5-0.2-2-0.5c-0.5-0.4-1-1-1.4-2c-1,1-1.9,1.6-2.7,2c-0.8,0.4-1.7,0.5-2.7,0.5
		c-1.4,0-2.4-0.3-3.2-0.9c-0.8-0.6-1.1-1.4-1.1-2.4c0-1.5,0.7-2.6,2.1-3.5c1.1-0.7,3.6-1.4,7.5-2.1v-2c0-0.8-0.3-1.4-0.8-1.9
		c-0.5-0.5-1.2-0.7-2.1-0.7c-0.7,0-1.2,0.1-1.7,0.4c-0.3,0.2-0.5,0.4-0.5,0.6c0,0.1,0.1,0.2,0.2,0.4c0.3,0.4,0.4,0.9,0.4,1.3
		c0,0.5-0.2,1-0.5,1.3c-0.4,0.3-0.8,0.5-1.4,0.5c-0.6,0-1.2-0.2-1.5-0.5s-0.6-0.8-0.6-1.4c0-0.9,0.5-1.8,1.5-2.5
		c1.3-0.9,2.8-1.3,4.7-1.3c1.4,0,2.7,0.2,3.8,0.7c0.7,0.3,1.3,0.8,1.7,1.5c0.4,0.7,0.7,1.6,0.7,2.6v6.9c0,0.5,0.1,0.9,0.3,1.1
		c0.2,0.2,0.5,0.3,0.8,0.3c0.3,0,0.6-0.2,1.1-0.5l0.6,1C52.4,39.8,51.9,40.1,51.4,40.3z"/>
</g>
</svg>
